<svg xmlns="http://www.w3.org/2000/svg" width="100%" height="100%" viewBox="0 0 4796 4796" >
  <rect width="100%" height="100%" fill="white"/>
  <g id="askyl" transform="translate (247, 0)">
    <path fill="black" d="M6.1 6.4C4.7 8.1 4.5 292.7 6 313.1c.5 7.3 1.1 20.1 1.5 28.4.3 8.2.7 16.3.9 18 .3 1.6.7 6.8 1.1 11.5.3 4.7.8 10.3 1 12.5s.6 6.5.9 9.5.7 7.5 1 10 .8 6.7 1 9.5c.3 2.7.8 7 1.1 9.5s.7 6.2 1 8.4c.2 2.1.6 4.6.9 5.5.2.9.7 4.7 1.1 8.6.3 3.8 1.1 9.7 1.6 13 1.4 7.9 1.7 9.3 2.3 13.5.3 1.9 1.2 7.8 2.1 13s1.9 11.1 2.1 13c.3 1.9.9 4.8 1.4 6.5.5 1.6 1.2 5.1 1.5 7.6.2 2.6 1.2 7.8 2.1 11.5.9 3.8 1.8 8.2 2.1 9.9.2 1.6.9 4.8 1.5 7 .5 2.2 1.2 5.1 1.4 6.5.3 1.4.7 3.3 1 4.2s.7 2.5.9 3.6c.2 1 2.4 10.2 5 20.3s4.9 19.5 5.1 20.9c.3 1.4.7 3.2 1 4 .7 1.8 7.3 24.7 7.9 27.6.3 1.2 1.6 5.4 2.9 9.5s4.2 13 6.4 19.9c5.4 16.8 17.9 51.8 21.2 59.5 1 2.2 3.2 7.8 5 12.5 1.7 4.7 4.3 10.9 5.6 13.8s2.4 5.5 2.4 5.8-.9 2.6 2.1 5.2c1.1 2.6 2.4 5.6 2.9 6.7 2.5 5.9 9.6 21.8 12.2 27.5 4.7 10 25.3 51.5 30.1 60.5 9.3 17.2 16.7 30.5 19.1 34.4 1.4 2.2 2.6 4.3 2.6 4.6 0 .5 14.6 24.8 19.5 32.5 1.2 1.9 4.6 7.3 7.6 12 7.9 12.5 31 46.9 39.7 59 119.4 166.3 269.2 299.4 436.7 388 26.8 14.2 70.7 35.2 91 43.5 5 2.1 10.8 4.5 13.1 5.6 5.1 2.2 12.7 5.3 22.4 8.9 4.1 1.6 10 3.8 13 5 9 3.4 13.1 5 20 7.4 10.3 3.7 44.6 15.1 54.5 18 5 1.5 10.7 3.4 12.8 4.2 2 .8 3.7 1.2 3.7.9 0-.2 1.2 0 2.8.6 1.5.6 3.4 1.3 4.2 1.5s4 1.1 7 1.9c3 .9 6.5 1.8 7.6 2.1 1.2.2 5.1 1.3 8.5 2.3 8.1 2.5 46.1 11.8 51.4 12.7 2.2.3 4.3.8 4.6 1s2.1.6 4 .9 4.2.8 5.1 1.1c1.7.5 4.2 1 9.3 2 1.6.3 3 .6 3.1.7.2.2 1.2 310.3 1.9 590.7.4 163.6 1 230.8 2 252.5 1 19.5 1.7 31.9 2.1 34.7.2 1.8.6 6.9.9 11.3s.7 9.6.9 11.5-.7 7.1 1 11.5c.4 4.4.9 9.6 1.1 11.5.3 1.9.8 5.5 1 8 .3 2.5.8 5.6 1 7s.7 5.4 1 9c.4 3.6.8 6.7 1 7 .1.3.6 3 .9 6 .6 5.1.9 7.5 2 14.7.2 1.6.7 4.8 1.1 7.3.3 2.5 1.5 9.7 2.7 16 1.1 6.3 2.2 12.7 2.3 14.2.2 1.5.8 4.4 1.4 6.5.5 2.1 1.2 5.6 1.5 7.8s.7 4.9 1 6c.2 1.1 1.4 6.7 2.6 12.4 1.1 5.8 2.3 10.7 2.5 11 .1.3.6 2.3.9 4.4.9 5.9 8 34.5 12.6 51.2 2.3 8.2 4.4 15.9 4.6 17s1.3 4.9 2.4 8.5 3.2 10.3 4.6 15c2.3 7.2 10.8 32.9 17.6 53 1 3 2.5 6.9 3.3 8.7.8 1.7 1.5 3.4 1.5 3.9 0 2.3 23.9 60.6 32 77.9 2.3 4.9 6.2 13.5 8.8 19 30.8 66.6 83.9 154.3 130.4 215.7 5.8 7.7 8.1 9.1 10.6 6.6 1.8-1.8 1.8-1767.8 0-1769.6-.8-.8-6.2-1.2-17.7-1.2-9.2 0-22.7-.4-30.1-1-7.4-.5-19.1-1.2-26-1.5-13.2-.6-20.6-1.1-28-1.9-2.5-.3-7.2-.7-10.5-1.1-17.9-1.8-24.5-2.5-27.5-3-1.4-.3-4.9-.7-7.8-1.1-2.9-.3-6.3-.7-7.5-1-1.2-.2-4.7-.7-7.7-1s-5.8-.8-6.1-1c-.4-.2-2.6-.6-5-.9s-5.5-.7-6.9-1-3.8-.7-5.5-1c-1.6-.2-4-.6-5.1-.9-1.2-.2-3.7-.7-5.5-1-1.9-.3-4.5-.8-5.9-1.1s-3.8-.8-5.5-1c-1.6-.3-3.7-.8-4.5-1s-2.6-.6-4-.9c-6.5-1.2-30.9-6.6-34-7.5-1.9-.5-7.3-2-12-3.2s-11.4-3-15-4c-3.6-1.1-7.4-2.1-8.5-2.3s-3.1-.9-4.5-1.4-2.9-1-3.3-1c-1.8 0-39.4-12.3-58.2-19-17.8-6.4-37.5-14.3-50-20.1-3.7-1.7-6.8-3.1-7.1-3.1-.5 0-13.4-6.1-32.4-15.3-59.3-28.8-121.5-68.3-176-111.6-122.2-97.4-217.3-213.2-282.2-343.7-33.7-67.8-56.1-127.4-75.3-200.5-1.4-5.3-2.7-10.5-2.9-11.5-.2-1.1-1.3-5.5-2.5-9.9-1.1-4.4-2.2-9.6-2.5-11.5-.4-1.9-1-5.3-1.5-7.5-2.7-11.4-4.2-18.4-4.6-22.5-.3-2.5-.8-5.3-1.1-6.3-.3-1.1-.7-2.9-.9-4-.3-1.7-3.1-19.6-6-38.2-.3-2-1-7.5-1.9-14.5-.5-3.9-1.5-13.5-2.1-19.5-2.3-23.1-2.2-22-2.9-37.5-.4-7.4-.9-14.9-1.2-16.5-.3-1.7-.7-12.8-1-24.8l-.6-21.7H1517v502.8c0 389.7.3 503.1 1.2 504s30.3 1.2 126 1.2H1769v244h-124.8c-95.7 0-125.1.3-126 1.2-1.7 1.7-1.7 255.9 0 257.6.9.9 30.3 1.2 126 1.2H1769v244h-124.8c-95.7 0-125.1.3-126 1.2-1.7 1.7-1.7 255.9 0 257.6.9.9 30.3 1.2 126 1.2H1769v244h-124.8c-95.7 0-125.1.3-126 1.2-1.7 1.7-1.7 255.9 0 257.6.9.9 30.3 1.2 126 1.2H1769v244h-124.8c-95.7 0-125.1.3-126 1.2s-1.2 197.8-1.2 879.9c0 766.9.2 878.8 1.5 879.9 3.5 2.9 5 1.2 22-25.5 19.2-30.1 25.4-40 34.3-54.5 15.1-24.8 19-31.2 40.2-67.5 5.3-9 12.4-21.5 16.5-29 1.5-2.8 3.1-5.5 3.5-6 .8-1.1 4.2-7.2 13.7-25 3.6-6.6 7.3-13.4 8.3-15 1.8-3.1 5.7-10.3 17.2-32 8.5-16.1 48.5-96 55.5-111 2.8-6.1 7.2-15.5 9.8-21 8.3-17.5 21.1-45.9 27.2-60 1.8-4.4 3.8-8.7 4.2-9.6 1.1-1.9 11.1-25.4 13.9-32.4 1.1-2.8 3.6-8.8 5.6-13.5s8.9-21.6 15.2-37.5c17.1-43.1 19.4-49.1 31.4-81.5 2.3-6.3 5.2-14 6.3-17s2.8-7.5 3.7-10c1-2.5 2.5-6.8 3.4-9.5.8-2.8 4.5-13.6 8.1-24 9.5-27.3 20.3-60.3 27-82 2-6.6 4.5-14.5 5.5-17.5s2.6-8.2 3.5-11.5c1.9-6.6 3.3-11.3 9.4-31.6 2.3-7.5 4.4-14.5 4.6-15.5.6-2.4 1.8-7 4.6-16.4 1.1-4.1 2.9-10.8 3.9-14.8s2.4-8.7 3-10.6c.6-1.8 1.3-4.2 1.5-5.2s2-8 4-15.4 3.8-14.2 4-15 1.4-5.3 2.5-10c1.2-4.7 2.3-9 2.4-9.5.2-.6.8-2.8 1.4-5s1.3-5.1 1.6-6.5c.4-2.1 7.8-32.8 9.2-38 .2-.8 1.5-6.7 2.9-13 1.5-6.3 2.9-12.4 3.1-13.5.3-1.1.9-3.8 1.4-6s1.3-5.8 1.9-8c1-4.1 1.7-7.6 2.7-13.4.3-1.9 1-4.5 1.5-5.8s.7-2.3.4-2.3c-.2 0 .2-2.1 1-4.8.8-2.6 1.7-6.7 2-9.2s1.1-6.3 1.7-8.5c1.2-4.8 1.7-6.9 2.4-11.5.3-1.9 1.2-6 1.9-9s1.6-6.9 1.8-8.5c.3-1.7 1-5 1.5-7.5.6-2.5 1.3-6.3 1.6-8.5s.8-5.1 1.1-6.5 1-5 1.6-8c.5-3 1.4-7.5 1.9-10 .6-2.5 1.2-6.2 1.5-8.4.2-2.1.7-4.6.9-5.5.3-.9.7-3.2 1-5.1s1.4-8.5 2.5-14.5c1.1-6.1 2.2-12.8 2.6-15 .3-2.2 1-6.5 1.5-9.5 1.7-9.9 3.5-21.7 4.5-29 .3-2.5.8-5.8 1.1-7.3.3-1.6.7-3.8.9-5 .1-1.2 1.2-8.7 2.4-16.7s2.4-15.9 2.6-17.5c.7-4.4 2.6-19.4 3-23.9.3-2.1.7-5.6 1-7.7.3-2.2.8-5.8 1.1-8.2.3-2.3.7-5.3.9-6.7.3-1.4.7-5.2 1-8.5s.7-6.7 1-7.5c.2-.8.7-4.7 1-8.5.4-3.9.8-8.4 1-10 .2-1.7.6-6.2 1-10 .3-3.9.8-8.1 1-9.5s.7-5.4 1-9c1-11.3 1.6-17.4 2-21 .4-3.3.9-8.5 2-22 .3-3 .7-8 1-11 .2-3 .7-9.1 1-13.5s.8-10.7 1-14c.9-11.3 1.5-19 2-29 .3-5.5.8-11.8 1-14s.6-10.3 1-18 .8-16.7.9-20c.2-3.3.6-13.4 1-22.5s1-21.2 1.3-27c.6-13.4 1.2-421.4 1.6-1136 .2-309.4.6-565 .9-568s.9-14.7 1.2-26c.4-11.3.8-23 1.1-26s.7-12.3 1.1-20.5c.6-15.7.8-20.9 1.9-36.5.4-5.2.8-12 1-15 1-15.9 2.1-30.6 3-40 .3-3 .7-8.2 1-11.5.6-8 1.4-16.8 2-23.3.3-2.8.7-7.8 1-11 .8-7.9 1.9-18.2 3-27.2.2-1.9.7-6.7 1-10.5.4-3.9.8-8.1 1-9.5s.6-5 .9-8c.4-3 .9-7.3 1.2-9.5s.7-5.8.9-8c.3-2.2.7-5.1.9-6.5.3-1.4.8-5.3 1.1-8.7s.8-7.2 1-8.4c.3-1.2.7-4.5 1-7.3s.8-6.2 1-7.6c.5-2.9 1.5-10.2 2-14.5.9-7.8 1.6-13.2 2-15 .2-1.1 1.4-8.5 2.5-16.5 2.6-18 2.9-19.9 3.5-23 .3-1.4.7-4.3 1-6.5s.7-5.1 1-6.5-.8-3.9 1-5.5c.3-1.7.7-4.1 1-5.5s1-5.7 1.6-9.5c.6-3.9 1.6-10.2 2.4-14 .8-3.9 1.6-8.8 1.9-11 .2-2.2.7-5.1 1-6.5s.8-3.6 1-5c.5-3.3 2.5-13.9 3.1-17 .3-1.4.8-4 1.1-5.9.8-4.9 1.3-7 1.8-8.9.3-.9.7-3.3 1-5.2.7-4.2 1.4-7.6 2-9.8.3-.9.7-3.3 1-5.2 1.1-6.5 1.5-9.1 3.1-16 .1-.3.4-1.9.8-3.5.4-1.7.9-4.5 1.2-6.4s.7-3.7.9-4 .7-2.4 1-4.6c.4-2.2 1.3-6.4 2.1-9.5.7-3 1.6-6.9 1.9-8.5.8-5.3 1.8-9.9 3.1-15 .7-2.8 2.3-9.5 3.5-15 1.9-8.4 7.2-31.4 8.6-36.5.2-.8 1-4.4 1.9-8 .8-3.6 3.3-13.7 5.5-22.5 2.3-8.8 4.3-16.5 4.4-17 .1-.6.5-1.9.9-3 .3-1.1.8-3.1 1.1-4.5.6-2.8 2.6-10.3 5.1-19.5.9-3.3 1.9-6.7 2.1-7.5 3.8-14.7 14.4-52.1 15-53.2.4-.6 2.2 4.3 4 10.8 1.9 6.6 4.6 15.9 6 20.8 1.4 4.8 2.7 9.5 2.9 10.5.5 1.8 2.3 8.8 3 11.1 2.9 10.2 18.3 70 19.6 76 1.8 8.3 2 9.4 2.4 10 .2.4.7 2.2 1 4.1s1.3 6.1 2.1 9.4c.9 3.3 1.8 6.9 2 8 .3 1.1.9 4.2 1.5 7 .6 2.7 1.5 6.6 2 8.5 1.1 4.7 2.9 12.9 3.5 16 .3 1.4.7 3.3 1 4.2.3 1 .7 3 1 4.5.3 1.6 1.1 5.5 1.9 8.8s1.6 7.3 2 9c.3 1.6.7 3.9.9 5s1.2 5.6 2.1 10 1.9 9.3 2.1 11c.3 1.6.9 4.3 1.4 6 .5 1.6 1.2 4.8 1.5 7 1.4 8.9 1.7 10.2 3 15.5.7 3 1.7 7.7 2.1 10.5.4 2.7.8 5.2.9 5.5s.5 2.5.9 5c.5 2.5 1 5.4 1.3 6.5.4 2.1 2.1 12.1 2.8 16.5.4 2.6 1.2 6.8 2 11 .3 1.4.8 4.1 1.1 6s.7 4.4.9 5.5-.6 3.8.9 6 .8 5.1 1.1 6.5 1 5.2 1.5 8.5c.6 3.3 1.2 7.3 1.5 9 1.3 7.9 1.5 9.3 2.1 13.5.3 2.5 1.2 8.5 2 13.5 1.6 9.5 2.9 17.7 3.9 26 .4 2.7.8 6.1 1 7.5s.8 5.6 1.4 9.5c.5 3.8 1.3 9 1.6 11.5s.7 6.2 1 8.2c1.5 11.4 2.4 19 3 24.3.7 6.9 1.8 15.7 2.9 24.4.3 1.8.8 6.8 1.1 11s.8 8.7 1 10.1-.6 5.4 1 9c.3 3.6.8 8.1 1 10 1 8.1 1.4 11.9 2 19.5.4 4.4.8 9.6 1 11.5s.6 7.5 1 12.5c.4 4.9.8 9.2 1 9.5s.6 5.7.9 12c.4 6.3.9 13.5 1.1 16 .7 6.2 1.3 15.6 2 28 .3 5.8.8 13.4 1 17s.6 11.9.9 18.5 1.1 20.1 1.6 30c.6 9.9 1.3 25 1.6 33.5.4 14 .7 211.8 1.7 1357 .2 192.2.6 354.9 1 361.5.3 6.6.9 19.2 1.2 28 .4 8.8.8 18.7 1 22s.6 11.8 1 19c.3 7.1.8 15.5 1 18.5s.6 10.7 1 17c.6 11.2 1 17.2 2 29.5.2 3.3.7 9.8 1 14.5.4 4.7.8 10.1 1 12s.6 7.1 1 11.5c.3 4.4.8 10.5 1.1 13.5s.7 7.5.9 10c.6 6.6 1.7 18.1 2 21 .1 1.4.5 5.4.9 9 .8 7.5 1.4 13.7 2.2 20 .3 2.5.7 6.3.9 8.5.3 2.2.7 6.2 1.1 9 .8 6.5 1.1 9.5 1.9 18 .3 3.8.8 8.2 1.1 9.7s.7 4.2.9 6c.5 5.6 1.6 13.2 2 14.8.3.8.7 4.2 1 7.5s.7 7.1 1 8.5-.8 4.5 1 7c.3 2.5.8 6.3 1.1 8.5s.8 5.3 1 7c.4 3.6 1.5 10.2 2 13 .3 1.1.9 5.4 1.4 9.5s1.1 8.4 1.4 9.5c.2 1.1.7 4.2 1 7 .4 2.7 1.3 8.6 2.1 13 .7 4.4 1.6 9.6 1.9 11.5s.8 4.6 1.1 6c.2 1.4.7 4.1.9 6 .3 1.9 1.4 8.7 2.5 15 1.2 6.3 2.4 12.8 2.6 14.5.3 1.6 1 5.2 1.5 8 .5 2.7 1.6 8.8 2.5 13.5.8 4.7 2.7 14.3 4.1 21.5 1.5 7.1 3 15 3.5 17.5.4 2.5 1.1 5.6 1.4 7s.7 3.6 1 5 .7 3.6 1 5 .7 3.8 1 5.5c.3 1.6 1.2 5.9 2 9.5 4.6 20.2 7.7 34.4 9.1 41.6.1.6 1.4 5.9 2.8 11.8 1.4 5.8 2.9 12.3 3.2 14.4.3 2 .8 4 1.1 4.4.2.5.6 1.6.8 2.5 2.8 13 11.4 47.3 15.9 63.8.2.5.6 2.3 1 4 1.3 5.3 7.6 28.7 9.7 36 1.1 3.8 2.4 8.6 2.9 10.5 3.3 12.2 9.5 33.6 11.4 40 1.3 4.1 3.4 10.9 4.6 15 3.6 12.1 7.1 23.2 8.5 27.5.8 2.2 3.5 10.7 6 19 2.6 8.2 7.8 24.2 11.7 35.5 3.8 11.3 8.5 25 10.3 30.5 1.9 5.5 5.4 15.6 7.8 22.5 2.5 6.9 5.7 15.9 7.1 20 1.5 4.1 3.1 8.4 3.5 9.5.5 1.1 3.2 8.3 6.1 16s6.7 17.9 8.6 22.7c1.9 4.9 3.4 9.1 3.4 9.4s.7 2 1.4 3.7c.8 1.8 4.9 11.7 9 22.2 7.5 19 21.8 54.2 23.5 58 .8 1.7 3.7 8.4 9.1 21 3.1 7.3 12.6 28.9 14.6 33.2 1.3 2.8 2.4 5.4 2.4 5.6 0 .3 2 4.7 4.4 9.8 2.4 5.2 5.9 13 7.9 17.4 1.9 4.4 6.4 14.1 10 21.5 3.5 7.4 8.8 18.4 11.7 24.5 20 41.9 54.2 108.8 73.9 144.4 2.6 4.7 6.7 12.2 9.1 16.6s6.7 12 9.5 17c2.9 4.9 6.3 11 7.7 13.5s3.5 6.2 4.7 8.2c1.1 2.1 3.1 5.5 4.2 7.5 14.2 25.2 55.6 93.4 76.3 125.8 3.2 4.9 7.4 11.6 9.4 14.8 8.8 13.9 14.9 22.2 16.5 22.5 1 .2 2.4-.2 3.2-.8 1.3-1.1 1.5-113 1.5-879.9 0-682.1-.3-879-1.2-879.9s-30.3-1.2-126-1.2H2533v-244h124.8c95.7 0 125.1-.3 126-1.2 1.7-1.7 1.7-255.9 0-257.6-.9-.9-30.3-1.2-126-1.2H2533v-244h124.8c95.7 0 125.1-.3 126-1.2 1.7-1.7 1.7-255.9 0-257.6-.9-.9-30.3-1.2-126-1.2H2533v-244h124.8c95.7 0 125.1-.3 126-1.2 1.7-1.7 1.7-255.9 0-257.6-.9-.9-30.3-1.2-126-1.2H2533v-244h124.8c95.7 0 125.1-.3 126-1.2s1.2-114.3 1.2-504V265h1252.2l-.6 23.1c-.3 12.7-.8 23.4-1 23.7-.2.4-.7 8.1-1 17.1-.4 9.1-.9 16.7-1.1 17-.1.4-.6 4.5-1 9.3-.3 4.9-.8 9.7-1 10.7-.2 1.1-.6 4.8-.9 8.3-.8 9-2.4 21.2-3.1 23.8-.2.8-.7 4-1 7s-.8 6.6-1 8-.7 4.3-1 6.5c-.8 6-2.4 15.7-3 18.5-.6 3-1.2 6.2-2 11-.3 1.9-1.9 9.3-3.5 16.5-1.6 7.1-3.2 14.6-3.5 16.5-.8 4.4-10 41.7-12.1 48.5-.8 2.7-2.2 7.5-3 10.5-7.9 27.1-20.5 63.6-32.1 92.5-58.4 146-148.7 273.9-268.3 380-48.6 43.2-103.5 83-158 114.8-27.1 15.8-75.4 40.4-100.5 51.3-1.6.7-6.7 2.8-11.2 4.8-7.1 3.1-14.5 6-42.8 17.1-8.3 3.3-50.6 17.8-55.5 19.1-.8.2-10.9 3.1-22.5 6.4-11.5 3.3-21.9 6.2-23 6.4-1.1.3-5.8 1.4-10.5 2.6-4.7 1.1-9.6 2.3-11 2.6-1.3.3-6 1.4-10.5 2.4-8.2 1.9-11.2 2.6-16.2 3.5-1.6.3-5 1-7.8 1.5-2.7.6-6.1 1.2-7.5 1.5s-3.7.7-5.2 1c-1.5.4-4.1.8-5.8 1-1.8.3-3.9.6-4.9.9-.9.3-3.6.8-6.1 1.1s-5.6.8-7 1c-1.4.3-3.8.7-5.5.9-5.2.8-11.9 1.8-14 2.2-1.1.2-4.5.6-7.5 1-3 .3-6.6.7-8 .9-1.4.1-5.2.6-8.5 1-3.3.3-7.6.8-9.5 1.1-9.8 1.1-21.6 2.1-35.5 3-5.5.3-12.5.7-15.5.9-3 .3-16.7.7-30.5 1.1-14.5.3-25.5 1-26.2 1.6-1.8 1.5-1.9 1767.8-.1 1769.6 3.3 3.3 5.8.7 25.1-26.5 61.4-86.5 108.2-170.9 143.8-259.8 4.4-11 8.4-20.9 8.8-22 1.8-4.3 7.2-18.6 9.6-25.5 4.5-12.7 18.7-56.3 20.1-61.5.8-3.3 2.2-7.9 2.9-10.2 1.2-3.5 3.2-10.7 6-21.3 6-22.7 14.2-57.4 16-67.9.3-1.9.7-3.7.9-4s.7-2.2 1-4.1 1.4-8 2.5-13.5c2-10.1 6.9-39 7.7-45.5.6-4.9 1.4-9.9 1.9-12.4.3-1.2.7-4.8 1-8.1s.7-7.1 1-8.5-.7-4.9 1.1-7.8c.3-2.9.7-6.1.9-7 .1-.9.6-5.1.9-9.2.7-7.2 1.1-11.1 2.1-21 .3-2.5.7-7.9 1-12s.7-9.5 1-12c.5-5.1 1-13.9 2.5-42.5.6-12.6 1-169.9 1-427.1v-407.2l2.3-.5c5.6-1.2 17.3-3.9 18.7-4.2.8-.2 5.1-1.1 9.5-2 9.2-1.9 43.8-10.7 50.5-12.7 2.5-.8 4.7-1.5 5-1.5.3-.1 2.5-.6 5-1.3s5.2-1.3 6-1.5 3.8-1 6.5-1.8c2.8-.9 12.7-3.9 22-6.7 23-7 52.7-17.1 70.5-24 3-1.2 7.1-2.6 9-3.2s5.3-1.8 7.5-2.8 7.2-3 11-4.5c3.9-1.5 8.8-3.5 11.1-4.6 2.2-1 6.5-2.7 9.4-3.9s7.2-2.9 9.4-3.9c2.3-1.1 6.8-3 10.1-4.4 9.4-4 26.1-11.9 49-23.3 157.9-78.6 292.2-187.5 412.9-334.9 44.3-54.1 92-123.1 121.8-176.5 1.1-1.9 4.2-7.3 6.8-12 9.9-17.3 14.5-26.2 28.9-55.5 16.1-32.6 28.2-59.2 35.8-79 1.9-5.1 2.8-7.2 4.6-11.5 7-16.5 30.6-85.4 34.2-100 .3-1.5 3.7-12.8 5.4-18.5 1-3.1 11.7-45.7 12.5-49.7 1-4.7 1.5-7 2-8.6.3-.9.7-2.8 1-4.2s1.4-6.8 2.5-12 2.3-11.1 2.6-13 .9-5.5 1.4-8c.6-2.5 1.3-6.3 1.7-8.5s.8-4.2.9-4.5-.5-2.5.9-5c.5-2.5 1-5.4 1.2-6.5s.9-5.2 1.5-9c.6-3.9 1.2-8.1 1.5-9.5.2-1.4.8-6.1 1.4-10.5s1.3-9.1 1.5-10.5c.3-1.4.7-4.8 1-7.5.3-2.8.8-6.1 1-7.5.9-5.5 3.3-26.6 4-35.8.2-2.3.6-6.4.9-9s.8-8.1 1.1-12.2-.7-10 1-13c.6-6.7 1.2-16.3 2.5-42.8 1.4-29.5 1.3-309.1-.1-310.8-1.6-2-1768.1-2.1-1769.7-.2-.5.7-1.3 8.5-1.6 17.3-.7 16.8-.9 20.2-2 30-1 8.7-1.9 15.1-3 21-.2 1.1-.7 4-1.1 6.5-.3 2.5-1 5.8-1.5 7.5-.5 1.6-1.1 4.3-1.4 6-1.6 9.7-7.9 31.7-12.8 44.5-1.1 3-2.4 6.4-2.8 7.5-1.7 4.5-7.4 17.5-10.8 24.5-34.1 70.6-98.8 136.7-168.9 172.5-15.1 7.7-47.8 21.2-55.8 23-1.1.2-6.3 1.6-11.5 3.1-9.5 2.6-19.3 4.9-25.3 5.9-1.8.3-3.9.8-4.7 1s-3.5.7-6 1c-2.4.4-4.7.8-5 1s-3 .6-6 .9-7.1.8-9 1c-22.4 2.8-68.6 2.8-91.5.1-6.8-.8-11.9-1.5-14.5-1.9-8.6-1.5-14.8-2.7-17-3.1-1.4-.3-4.5-1-7-1.5s-5.5-1.2-6.8-1.4c-1.3-.3-3.2-.8-4.2-1.1s-2.8-.8-3.9-1c-8.7-1.7-42.2-13.7-56.6-20.3-30.7-14.2-62.3-34.9-89.5-58.8-13-11.4-35-33.8-45.2-46.1-20.1-24.2-41.1-57.9-53.1-85.3-5-11.5-6.1-14-7.8-19-2.2-6.2-9.9-30.5-10.4-32.9-.2-.9-.8-3.1-1.4-4.9-.5-1.8-1-3.5-1-3.7 0-.3-.2-1.8-.5-3.3-1.3-6-1.7-7.9-2.6-13.2-.6-3-1.2-6.6-1.5-8s-.8-4.5-1.1-7-.8-5.3-1-6.3c-.3-1.9-1.4-11.4-1.9-18.2-.2-2.2-.7-11.2-1.1-20-.3-8.8-1.1-16.6-1.6-17.3C1774.2 4.3 7.7 4.4 6.1 6.4"/>
  </g>

  <g id="web" transform="translate(3000, 3000) scale(83.3)">
    <path fill-rule="evenodd" clip-rule="evenodd" fill="black" d="M9.83824 18.4467C10.0103 18.7692 10.1826 19.0598 10.3473 19.3173C8.59745 18.9238 7.07906 17.9187 6.02838 16.5383C6.72181 16.1478 7.60995 15.743 8.67766 15.4468C8.98112 16.637 9.40924 17.6423 9.83824 18.4467ZM11.1618 17.7408C10.7891 17.0421 10.4156 16.1695 10.1465 15.1356C10.7258 15.0496 11.3442 15 12.0001 15C12.6559 15 13.2743 15.0496 13.8535 15.1355C13.5844 16.1695 13.2109 17.0421 12.8382 17.7408C12.5394 18.3011 12.2417 18.7484 12 19.0757C11.7583 18.7484 11.4606 18.3011 11.1618 17.7408ZM9.75 12C9.75 12.5841 9.7893 13.1385 9.8586 13.6619C10.5269 13.5594 11.2414 13.5 12.0001 13.5C12.7587 13.5 13.4732 13.5593 14.1414 13.6619C14.2107 13.1384 14.25 12.5841 14.25 12C14.25 11.4159 14.2107 10.8616 14.1414 10.3381C13.4732 10.4406 12.7587 10.5 12.0001 10.5C11.2414 10.5 10.5269 10.4406 9.8586 10.3381C9.7893 10.8615 9.75 11.4159 9.75 12ZM8.38688 10.0288C8.29977 10.6478 8.25 11.3054 8.25 12C8.25 12.6946 8.29977 13.3522 8.38688 13.9712C7.11338 14.3131 6.05882 14.7952 5.24324 15.2591C4.76698 14.2736 4.5 13.168 4.5 12C4.5 10.832 4.76698 9.72644 5.24323 8.74088C6.05872 9.20472 7.1133 9.68686 8.38688 10.0288ZM10.1465 8.86445C10.7258 8.95042 11.3442 9 12.0001 9C12.6559 9 13.2743 8.95043 13.8535 8.86447C13.5844 7.83055 13.2109 6.95793 12.8382 6.2592C12.5394 5.69894 12.2417 5.25156 12 4.92432C11.7583 5.25156 11.4606 5.69894 11.1618 6.25918C10.7891 6.95791 10.4156 7.83053 10.1465 8.86445ZM15.6131 10.0289C15.7002 10.6479 15.75 11.3055 15.75 12C15.75 12.6946 15.7002 13.3521 15.6131 13.9711C16.8866 14.3131 17.9412 14.7952 18.7568 15.2591C19.233 14.2735 19.5 13.1679 19.5 12C19.5 10.8321 19.233 9.72647 18.7568 8.74093C17.9413 9.20477 16.8867 9.6869 15.6131 10.0289ZM17.9716 7.46178C17.2781 7.85231 16.39 8.25705 15.3224 8.55328C15.0189 7.36304 14.5908 6.35769 14.1618 5.55332C13.9897 5.23077 13.8174 4.94025 13.6527 4.6827C15.4026 5.07623 16.921 6.08136 17.9716 7.46178ZM8.67765 8.55325C7.61001 8.25701 6.7219 7.85227 6.02839 7.46173C7.07906 6.08134 8.59745 5.07623 10.3472 4.6827C10.1826 4.94025 10.0103 5.23076 9.83823 5.5533C9.40924 6.35767 8.98112 7.36301 8.67765 8.55325ZM15.3224 15.4467C15.0189 16.637 14.5908 17.6423 14.1618 18.4467C13.9897 18.7692 13.8174 19.0598 13.6527 19.3173C15.4026 18.9238 16.921 17.9186 17.9717 16.5382C17.2782 16.1477 16.3901 15.743 15.3224 15.4467ZM12 21C16.9706 21 21 16.9706 21 12C21 7.02944 16.9706 3 12 3C7.02944 3 3 7.02944 3 12C3 16.9706 7.02944 21 12 21Z"/>
  </g>
</svg>
